/* XPM */
static char *north[] = {
"8 8 3 1",
"  c #AAAAAA",
". c #FFFFFF",
"X c #000000",
"........",
".XXXXXX.",
".X....X.",
".X....X.",
".X....X.",
".X....X.",
".XXXXXX.",
"........"
};